<?xml version="1.0" encoding="UTF-8"?>
<svg version="1.1" xmlns="http://www.w3.org/2000/svg" width="512" height="512">
<path d="M0 0 C1.01823853 0.00215515 2.03647705 0.0043103 3.08557129 0.00653076 C17.7097884 0.05623391 32.00304638 0.37042012 46.375 3.3125 C47.37160645 3.50585938 48.36821289 3.69921875 49.39501953 3.8984375 C83.6373516 10.66441743 115.45498372 23.74873401 144.375 43.3125 C145.54503768 44.09325063 146.71555853 44.873278 147.88671875 45.65234375 C148.70785156 46.20019531 149.52898437 46.74804688 150.375 47.3125 C150.045 49.2925 149.715 51.2725 149.375 53.3125 C152.345 55.6225 155.315 57.9325 158.375 60.3125 C162.17838501 57.16027819 165.78537325 53.96704327 169.20703125 50.40234375 C169.86123047 49.72236328 170.51542969 49.04238281 171.18945312 48.34179688 C172.51786697 46.95105276 173.83826835 45.55260944 175.15039062 44.14648438 C180.87175183 38.24580529 186.86405701 34.12485202 195.0625 32.6484375 C202.82728479 32.74000336 209.07673184 33.49617729 215.375 38.3125 C220.98779168 44.11238473 223.65814107 49.89161606 223.8125 58 C223.85246094 59.13824219 223.89242188 60.27648438 223.93359375 61.44921875 C222.46195935 71.62716577 216.28251363 78.0878896 209.0625 84.9375 C208.22654297 85.75089844 207.39058594 86.56429687 206.52929688 87.40234375 C204.48891338 89.38443058 202.43777676 91.35377452 200.375 93.3125 C202.23559022 97.22137387 204.70426112 100.50351455 207.3125 103.9375 C213.59937857 112.38047556 219.10572056 121.20591937 224.375 130.3125 C224.76929199 130.98974121 225.16358398 131.66698242 225.56982422 132.36474609 C244.49235443 165.26331994 256.28229505 205.23294948 256.61328125 243.26953125 C256.6230751 244.20225357 256.63286896 245.13497589 256.64295959 246.09596252 C256.89197601 275.9790168 255.53892803 305.48495323 245.42724609 333.98364258 C243.54186196 339.30850403 243.54186196 339.30850403 244.359375 344.80859375 C245.23335938 346.26458984 245.23335938 346.26458984 246.125 347.75 C246.69734375 348.73871094 247.2696875 349.72742188 247.859375 350.74609375 C248.35953125 351.59300781 248.8596875 352.43992187 249.375 353.3125 C252.48525688 362.64327065 251.33134182 374.91884469 247.05078125 383.63671875 C239.60963252 395.51827325 228.74848247 404.1763714 215.375 408.3125 C211.81655763 409.09093554 208.23719726 409.72712352 204.63061523 410.23730469 C202.86282612 410.50642494 201.1152403 410.9013215 199.375 411.3125 C198.715 412.3025 198.055 413.2925 197.375 414.3125 C197.89449219 414.82296875 198.41398437 415.3334375 198.94921875 415.859375 C207.70275854 424.98506158 211.83863079 435.63730243 211.6484375 448.28515625 C209.95989809 466.97969971 201.11725034 482.48219825 186.83203125 494.44140625 C174.01956417 503.87252272 159.50343725 508.14458405 143.6015625 507.13671875 C130.28515099 505.0035072 121.44436978 497.48616664 113.375 487.3125 C112.53412842 487.70405273 112.53412842 487.70405273 111.67626953 488.10351562 C76.10161089 504.50822395 39.36423448 512.77761623 0.25 512.625 C-0.74456207 512.62284485 -1.73912415 512.6206897 -2.76382446 512.61846924 C-17.24438666 512.56811017 -31.3931425 512.21733356 -45.625 509.3125 C-47.14601318 509.01448486 -47.14601318 509.01448486 -48.69775391 508.71044922 C-89.78838664 500.49232267 -126.72283689 483.05117595 -159.625 457.3125 C-160.16415039 456.89339355 -160.70330078 456.47428711 -161.25878906 456.04248047 C-177.50359161 443.27574509 -192.55419408 428.0822445 -204.625 411.3125 C-205.47676801 410.16585128 -206.32965463 409.02003275 -207.18359375 407.875 C-213.23103133 399.68339798 -218.61598412 391.17346602 -223.625 382.3125 C-224.0271875 381.60528809 -224.429375 380.89807617 -224.84375 380.16943359 C-237.5310914 357.63453464 -245.9844835 333.36951763 -251.375 308.125 C-251.57383789 307.20017822 -251.77267578 306.27535645 -251.97753906 305.32250977 C-255.26941382 289.1158142 -256.00030274 273.18212039 -255.9375 256.6875 C-255.93534485 255.66926147 -255.9331897 254.65102295 -255.93096924 253.60192871 C-255.88126609 238.9777116 -255.56707988 224.68445362 -252.625 210.3125 C-252.33496094 208.81759033 -252.33496094 208.81759033 -252.0390625 207.29248047 C-242.47536476 158.89101943 -220.05762235 114.69690229 -185.625 79.3125 C-184.98159668 78.64331543 -184.33819336 77.97413086 -183.67529297 77.28466797 C-174.53971007 67.8068483 -165.25689215 59.07843043 -154.625 51.3125 C-153.47394983 50.45443848 -152.32290823 49.59636549 -151.171875 48.73828125 C-142.98224019 42.70072604 -134.47961724 37.31792698 -125.625 32.3125 C-124.91778809 31.9103125 -124.21057617 31.508125 -123.48193359 31.09375 C-100.94703464 18.4064086 -76.68201763 9.9530165 -51.4375 4.5625 C-50.51267822 4.36366211 -49.58785645 4.16482422 -48.63500977 3.95996094 C-32.4283142 0.66808618 -16.49462039 -0.06280274 0 0 Z " fill="#E16315" transform="translate(255.625,-0.3125)"/>
<path d="M0 0 C1.01823853 0.00215515 2.03647705 0.0043103 3.08557129 0.00653076 C17.7097884 0.05623391 32.00304638 0.37042012 46.375 3.3125 C47.37160645 3.50585938 48.36821289 3.69921875 49.39501953 3.8984375 C83.6373516 10.66441743 115.45498372 23.74873401 144.375 43.3125 C145.54503768 44.09325063 146.71555853 44.873278 147.88671875 45.65234375 C148.70785156 46.20019531 149.52898437 46.74804688 150.375 47.3125 C150.045 49.2925 149.715 51.2725 149.375 53.3125 C152.345 55.6225 155.315 57.9325 158.375 60.3125 C162.17838501 57.16027819 165.78537325 53.96704327 169.20703125 50.40234375 C169.86123047 49.72236328 170.51542969 49.04238281 171.18945312 48.34179688 C172.51786697 46.95105276 173.83826835 45.55260944 175.15039062 44.14648438 C180.87175183 38.24580529 186.86405701 34.12485202 195.0625 32.6484375 C202.82728479 32.74000336 209.07673184 33.49617729 215.375 38.3125 C220.98779168 44.11238473 223.65814107 49.89161606 223.8125 58 C223.85246094 59.13824219 223.89242188 60.27648438 223.93359375 61.44921875 C222.46195935 71.62716577 216.28251363 78.0878896 209.0625 84.9375 C208.22654297 85.75089844 207.39058594 86.56429687 206.52929688 87.40234375 C204.48891338 89.38443058 202.43777676 91.35377452 200.375 93.3125 C202.23559022 97.22137387 204.70426112 100.50351455 207.3125 103.9375 C213.59937857 112.38047556 219.10572056 121.20591937 224.375 130.3125 C224.76929199 130.98974121 225.16358398 131.66698242 225.56982422 132.36474609 C244.49235443 165.26331994 256.28229505 205.23294948 256.61328125 243.26953125 C256.6230751 244.20225357 256.63286896 245.13497589 256.64295959 246.09596252 C256.89197601 275.9790168 255.53892803 305.48495323 245.42724609 333.98364258 C243.54186196 339.30850403 243.54186196 339.30850403 244.359375 344.80859375 C245.23335938 346.26458984 245.23335938 346.26458984 246.125 347.75 C246.69734375 348.73871094 247.2696875 349.72742188 247.859375 350.74609375 C248.35953125 351.59300781 248.8596875 352.43992187 249.375 353.3125 C252.48525688 362.64327065 251.33134182 374.91884469 247.05078125 383.63671875 C239.60963252 395.51827325 228.74848247 404.1763714 215.375 408.3125 C211.81655763 409.09093554 208.23719726 409.72712352 204.63061523 410.23730469 C202.86282612 410.50642494 201.1152403 410.9013215 199.375 411.3125 C198.715 412.3025 198.055 413.2925 197.375 414.3125 C197.89449219 414.82296875 198.41398437 415.3334375 198.94921875 415.859375 C207.70275854 424.98506158 211.83863079 435.63730243 211.6484375 448.28515625 C209.95989809 466.97969971 201.11725034 482.48219825 186.83203125 494.44140625 C174.01956417 503.87252272 159.50343725 508.14458405 143.6015625 507.13671875 C130.28515099 505.0035072 121.44436978 497.48616664 113.375 487.3125 C112.53412842 487.70405273 112.53412842 487.70405273 111.67626953 488.10351562 C76.10161089 504.50822395 39.36423448 512.77761623 0.25 512.625 C-0.74456207 512.62284485 -1.73912415 512.6206897 -2.76382446 512.61846924 C-17.24438666 512.56811017 -31.3931425 512.21733356 -45.625 509.3125 C-47.14601318 509.01448486 -47.14601318 509.01448486 -48.69775391 508.71044922 C-89.78838664 500.49232267 -126.72283689 483.05117595 -159.625 457.3125 C-160.16415039 456.89339355 -160.70330078 456.47428711 -161.25878906 456.04248047 C-177.50359161 443.27574509 -192.55419408 428.0822445 -204.625 411.3125 C-205.47676801 410.16585128 -206.32965463 409.02003275 -207.18359375 407.875 C-213.23103133 399.68339798 -218.61598412 391.17346602 -223.625 382.3125 C-224.0271875 381.60528809 -224.429375 380.89807617 -224.84375 380.16943359 C-237.5310914 357.63453464 -245.9844835 333.36951763 -251.375 308.125 C-251.57383789 307.20017822 -251.77267578 306.27535645 -251.97753906 305.32250977 C-255.26941382 289.1158142 -256.00030274 273.18212039 -255.9375 256.6875 C-255.93534485 255.66926147 -255.9331897 254.65102295 -255.93096924 253.60192871 C-255.88126609 238.9777116 -255.56707988 224.68445362 -252.625 210.3125 C-252.33496094 208.81759033 -252.33496094 208.81759033 -252.0390625 207.29248047 C-242.47536476 158.89101943 -220.05762235 114.69690229 -185.625 79.3125 C-184.98159668 78.64331543 -184.33819336 77.97413086 -183.67529297 77.28466797 C-174.53971007 67.8068483 -165.25689215 59.07843043 -154.625 51.3125 C-153.47394983 50.45443848 -152.32290823 49.59636549 -151.171875 48.73828125 C-142.98224019 42.70072604 -134.47961724 37.31792698 -125.625 32.3125 C-124.91778809 31.9103125 -124.21057617 31.508125 -123.48193359 31.09375 C-100.94703464 18.4064086 -76.68201763 9.9530165 -51.4375 4.5625 C-50.51267822 4.36366211 -49.58785645 4.16482422 -48.63500977 3.95996094 C-32.4283142 0.66808618 -16.49462039 -0.06280274 0 0 Z M-136.18066406 116.93115234 C-137.46301618 118.15758039 -138.75797661 119.37079487 -140.0546875 120.58203125 C-173.09607732 152.27119337 -193.60089687 200.63620911 -194.87109375 246.1484375 C-195.6971035 300.88460637 -178.34893005 352.20691131 -139.87890625 392.015625 C-138.79538397 393.11568085 -137.71073477 394.21462778 -136.625 395.3125 C-136.05547607 395.9003125 -135.48595215 396.488125 -134.89916992 397.09375 C-131.08703223 400.98897885 -127.13123737 404.49128548 -122.8125 407.8125 C-122.19995361 408.28679443 -121.58740723 408.76108887 -120.95629883 409.24975586 C-78.95515344 441.58331555 -28.53681164 456.34204483 24.27880859 450.53930664 C74.5343006 443.8893375 122.61088532 417.72709192 153.63134766 377.32592773 C154.88830446 375.66132803 156.13373051 373.98881586 157.375 372.3125 C157.99761719 371.48492187 158.62023437 370.65734375 159.26171875 369.8046875 C172.57961702 351.48869687 181.85681633 330.93631567 188.375 309.3125 C188.65859375 308.39984375 188.9421875 307.4871875 189.234375 306.546875 C192.95803671 293.85602793 195.01855702 280.52023214 195.375 267.3125 C195.41584717 265.8284668 195.41584717 265.8284668 195.45751953 264.31445312 C196.70347502 210.37006591 178.54137752 160.61075496 141.23828125 121.3046875 C140.74924316 120.79389648 140.26020508 120.28310547 139.75634766 119.75683594 C138.52991961 118.47448382 137.31670513 117.17952339 136.10546875 115.8828125 C115.42288227 94.31766667 88.26418478 80.07401411 60.375 70.3125 C59.23933594 69.90257813 58.10367188 69.49265625 56.93359375 69.0703125 C-10.35554991 46.4358939 -86.0887912 68.97252959 -136.18066406 116.93115234 Z " fill="#4E261C" transform="translate(255.625,-0.3125)"/>
<path d="M0 0 C2.36359468 0.45835482 4.73224497 0.86082187 7.10693359 1.25732422 C42.72581215 7.47626695 75.48517743 22.35917582 105.31396484 42.44873047 C106.79896484 40.96373047 106.79896484 40.96373047 108.31396484 39.44873047 C113.71886003 40.96885724 117.29889113 44.72258265 121.31396484 48.44873047 C117.41419763 53.11747584 113.3618184 57.54000856 109.04052734 61.81982422 C108.47191986 62.38701675 107.90331238 62.95420929 107.31747437 63.53858948 C105.52700249 65.3235296 103.73306 67.10493303 101.93896484 68.88623047 C100.71347161 70.10669986 99.48820912 71.327401 98.26318359 72.54833984 C95.2827671 75.51781803 92.2992359 78.48413303 89.31396484 81.44873047 C85.21060419 79.88892817 82.05997392 77.97631345 78.50146484 75.38623047 C71.09462541 70.13231807 63.33520567 65.69158721 55.31396484 61.44873047 C54.22599609 60.86478516 53.13802734 60.28083984 52.01708984 59.67919922 C31.996207 49.64525911 9.94682198 43.38538812 -12.22460938 40.74414062 C-14.30038212 40.49501495 -16.36945381 40.19095699 -18.43603516 39.87451172 C-68.01005692 33.78326915 -120.08821904 49.7175591 -159.68603516 79.44873047 C-160.60255859 80.13451172 -161.51908203 80.82029297 -162.46337891 81.52685547 C-168.69567443 86.37091455 -174.51582341 91.68499542 -180.25292969 97.09912109 C-181.56446552 98.33424376 -182.88832353 99.55624804 -184.21337891 100.77685547 C-220.24643146 135.11629615 -240.7282095 187.19974054 -241.97119141 236.42138672 C-242.2374999 250.26392287 -241.9355323 263.85934146 -239.08300781 277.45605469 C-238.70169463 279.37012489 -238.41628524 281.30254369 -238.13525391 283.23388672 C-233.90540824 311.05878985 -220.93385834 338.65381396 -204.68603516 361.44873047 C-204.26999023 362.03299805 -203.85394531 362.61726563 -203.42529297 363.21923828 C-197.55695918 371.34927724 -190.99395183 378.76972442 -184.06738281 386.00439453 C-182.84095477 387.28674665 -181.62774029 388.58170708 -180.41650391 389.87841797 C-147.47326622 424.22739678 -96.22707579 446.37125378 -48.81718445 447.65614319 C-34.70968503 447.94548154 -20.60891799 447.97088621 -6.68603516 445.44873047 C-5.11987049 445.21145331 -3.55344496 444.97589404 -1.98681641 444.74169922 C43.02379447 437.57159999 81.93281771 413.66055503 113.31396484 381.44873047 C118.1152264 383.16346674 121.73926624 385.78739025 125.81396484 388.79248047 C128.2552229 390.40981393 130.56400975 391.46660365 133.31396484 392.44873047 C133.31396484 392.77873047 133.31396484 393.10873047 133.31396484 393.44873047 C132.65912109 393.47451172 132.00427734 393.50029297 131.32958984 393.52685547 C114.45242706 394.57571869 99.89491626 402.22330789 88.31396484 414.44873047 C78.42597519 426.16139308 73.21708021 438.60389191 72.68896484 453.88623047 C72.65029297 454.80855469 72.61162109 455.73087891 72.57177734 456.68115234 C72.47827809 458.9368219 72.39252575 461.19249962 72.31396484 463.44873047 C61.65020217 469.17202235 50.76887699 473.57341442 39.31396484 477.44873047 C38.5118457 477.72104492 37.70972656 477.99335938 36.88330078 478.27392578 C-8.23412182 493.32519988 -60.13495445 494.18590777 -105.68603516 480.44873047 C-106.50620117 480.20815918 -107.32636719 479.96758789 -108.17138672 479.71972656 C-168.251876 461.85640709 -220.85356895 419.76451961 -251.67724609 365.23144531 C-252.65722356 363.49964583 -253.65960243 361.7805826 -254.66259766 360.06201172 C-261.2853801 348.43509307 -265.95492494 335.93444631 -270.68603516 323.44873047 C-270.96608398 322.72153809 -271.24613281 321.9943457 -271.53466797 321.24511719 C-292.81618487 265.39193446 -287.2517113 197.98354316 -263.24853516 144.13623047 C-246.88181694 108.33900525 -222.36335738 74.25821323 -190.68603516 50.44873047 C-190.06067871 49.9740332 -189.43532227 49.49933594 -188.79101562 49.01025391 C-135.8225923 9.00073274 -66.36867555 -12.96121497 0 0 Z " fill="#9BD1FA" transform="translate(293.68603515625,12.55126953125)"/>
<path d="M0 0 C1.05815918 0.31493408 1.05815918 0.31493408 2.13769531 0.63623047 C43.0672503 13.06675478 78.53902411 37.55279733 104 72 C104.63421875 72.85078125 105.2684375 73.7015625 105.921875 74.578125 C136.04938295 116.31439747 148.06166949 168.16278754 140 219 C132.80378879 260.27670726 113.59910495 295.67011348 85 326 C84.27039063 326.78375 83.54078125 327.5675 82.7890625 328.375 C49.63191456 362.88801645 -0.3376449 382.20963695 -47.63354492 383.36569214 C-102.71713701 384.35473941 -151.24489411 363.43283266 -191 326 C-192.06541016 325.01580078 -192.06541016 325.01580078 -193.15234375 324.01171875 C-225.8933446 292.74372816 -246.78256698 244.11108403 -248 199 C-248.02723145 198.01064453 -248.05446289 197.02128906 -248.08251953 196.00195312 C-249.36198575 140.6066989 -230.28004893 91.14874954 -192 51 C-191.27296875 50.22011719 -190.5459375 49.44023438 -189.796875 48.63671875 C-166.22194713 24.05767359 -134.5503567 7.81290778 -102 -1 C-101.08734375 -1.28488281 -100.1746875 -1.56976563 -99.234375 -1.86328125 C-68.12491823 -11.40155809 -30.90239618 -9.2161049 0 0 Z M-176.68603516 77.86572266 C-207.31686285 113.38710887 -220.47905635 156.41061382 -218 203 C-214.30531526 246.66746571 -191.76836461 287.40527561 -158.5612793 315.61254883 C-124.16942712 343.83210395 -80.87390941 356.42934398 -36.70019531 352.72314453 C7.59028559 348.08350277 47.92022155 325.98134728 76.15234375 291.6328125 C104.3666969 256.23818853 116.13649903 211.21451976 111.2265625 166.4152832 C107.154223 134.81788788 93.7046059 105.15892007 73 81 C72.52836426 80.44860352 72.05672852 79.89720703 71.57080078 79.32910156 C43.32032969 46.70664764 3.03172946 26.54211591 -40 23 C-91.97190303 20.12620218 -141.4888291 38.91740979 -176.68603516 77.86572266 Z " fill="#FDE1A7" transform="translate(309,68)"/>
<path d="M0 0 C2.36359468 0.45835482 4.73224497 0.86082187 7.10693359 1.25732422 C42.72581215 7.47626695 75.48517743 22.35917582 105.31396484 42.44873047 C106.79896484 40.96373047 106.79896484 40.96373047 108.31396484 39.44873047 C113.71886003 40.96885724 117.29889113 44.72258265 121.31396484 48.44873047 C117.41419763 53.11747584 113.3618184 57.54000856 109.04052734 61.81982422 C108.47191986 62.38701675 107.90331238 62.95420929 107.31747437 63.53858948 C105.52700249 65.3235296 103.73306 67.10493303 101.93896484 68.88623047 C100.71347161 70.10669986 99.48820912 71.327401 98.26318359 72.54833984 C95.2827671 75.51781803 92.2992359 78.48413303 89.31396484 81.44873047 C85.21060419 79.88892817 82.05997392 77.97631345 78.50146484 75.38623047 C71.09462541 70.13231807 63.33520567 65.69158721 55.31396484 61.44873047 C54.22599609 60.86478516 53.13802734 60.28083984 52.01708984 59.67919922 C31.996207 49.64525911 9.94682198 43.38538812 -12.22460938 40.74414062 C-14.30038212 40.49501495 -16.36945381 40.19095699 -18.43603516 39.87451172 C-68.01005692 33.78326915 -120.08821904 49.7175591 -159.68603516 79.44873047 C-160.60255859 80.13451172 -161.51908203 80.82029297 -162.46337891 81.52685547 C-168.69567443 86.37091455 -174.51582341 91.68499542 -180.25292969 97.09912109 C-181.56446552 98.33424376 -182.88832353 99.55624804 -184.21337891 100.77685547 C-215.26859199 130.3724232 -234.24750811 173.55025596 -240.68603516 215.44873047 C-245.42644047 214.00561815 -248.41521784 211.21996171 -251.81103516 207.76123047 C-252.37363037 207.1932373 -252.93622559 206.62524414 -253.51586914 206.04003906 C-259.61449488 199.72449327 -264.85772019 192.77205007 -269.68603516 185.44873047 C-270.08032715 184.86961914 -270.47461914 184.29050781 -270.88085938 183.69384766 C-273.60818197 179.40139343 -274.30486135 176.47402591 -273.68603516 171.44873047 C-272.81179143 168.07259813 -271.66105499 164.8372139 -270.43603516 161.57373047 C-270.08250977 160.62264404 -269.72898437 159.67155762 -269.36474609 158.69165039 C-253.54012062 117.25470025 -226.45254473 77.33175067 -190.68603516 50.44873047 C-190.06067871 49.9740332 -189.43532227 49.49933594 -188.79101562 49.01025391 C-135.8225923 9.00073274 -66.36867555 -12.96121497 0 0 Z " fill="#CCE7FC" transform="translate(293.68603515625,12.55126953125)"/>
<path d="M0 0 C3.29714793 0.32971479 4.6226839 0.6226839 7 3 C7.35406643 7.16028056 6.88826446 10.67213449 6.00390625 14.73828125 C4.74639369 21.52063077 4.66316499 28.23465043 4.68432617 35.10498047 C4.68747525 37.23327482 4.66397742 39.36015853 4.63867188 41.48828125 C4.52524019 65.6357935 12.50105236 87.42918887 28 106 C28.53109375 106.66515625 29.0621875 107.3303125 29.609375 108.015625 C34.4177857 113.83151222 40.0274209 118.41923831 46 123 C47.01707031 123.78246094 48.03414063 124.56492187 49.08203125 125.37109375 C60.05614406 133.59918952 72.07133248 140.05251324 84.04541016 146.6875 C86.10934782 147.83214481 88.17177323 148.9795207 90.23266602 150.12963867 C92.18358504 151.21772709 94.13827323 152.29909673 96.09741211 153.37231445 C101.51218947 156.39074421 106.30944872 159.64449773 111.01855469 163.6862793 C113.15940399 165.36839284 113.15940399 165.36839284 117 165 C118.81686396 163.81313729 118.81686396 163.81313729 120.625 162.125 C124.97700623 158.58498838 129.5335652 155.86879186 134.4375 153.1875 C135.21295166 152.763479 135.98840332 152.33945801 136.78735352 151.90258789 C139.18882786 150.59659169 141.59394152 149.29752849 144 148 C159.73327806 139.49030238 175.41611076 130.75440921 189 119 C189.88945312 118.25492187 190.77890625 117.50984375 191.6953125 116.7421875 C210.79598079 100.19536901 223.6496246 76.3132903 226 51 C226.75937123 38.18093319 226.46261575 25.54307765 223.97998047 12.92456055 C223.21263651 8.99314538 222.69683718 5.84539849 224 2 C224.66 1.34 225.32 0.68 226 0 C228.4375 0.125 228.4375 0.125 231 1 C234.7623561 5.30437521 236.34418487 10.52752593 238.3125 15.8125 C238.70767822 16.87114258 239.10285645 17.92978516 239.51000977 19.02050781 C246.53982836 38.31356554 251.36693237 57.7777913 251.3125 78.375 C251.32861328 79.58671875 251.34472656 80.7984375 251.36132812 82.046875 C251.37455116 106.85328514 241.69195697 129.2175571 224.4140625 146.7734375 C213.08256351 157.75730348 199.9745017 165.84436234 186 173 C185.37399902 173.32210449 184.74799805 173.64420898 184.10302734 173.97607422 C178.35948974 176.91524089 172.5632061 179.74742752 166.76660156 182.58007812 C163.71077692 184.07581948 160.65827308 185.57788868 157.60809326 187.08508301 C155.8077434 187.9715674 154.00281549 188.8487354 152.19775391 189.72558594 C137.63581892 196.9234069 125.97738913 204.01153446 119 219 C118.34 219.66 117.68 220.32 117 221 C113.70285207 220.67028521 112.3773161 220.3773161 110 218 C109.4121875 216.453125 109.4121875 216.453125 108.8125 214.875 C100.95072054 196.40363467 74.61562017 188.15170425 57.95117188 180.09204102 C28.3104987 165.71966874 2.71694021 149.82280454 -13 120 C-13.61681641 118.89978516 -13.61681641 118.89978516 -14.24609375 117.77734375 C-27.9472829 90.96139767 -21.37415165 56.32697462 -12.67358398 29.18164062 C-4.54386077 4.54386077 -4.54386077 4.54386077 0 0 Z " fill="#50261A" transform="translate(141,176)"/>
<path d="M0 0 C31.41776622 29.23898988 50.06746709 70.37581162 51.69140625 113.17578125 C52.86108843 159.56728488 36.64484304 201.62285172 5.17382812 235.43896484 C-23.87397421 265.81797178 -64.93710439 284.0267228 -106.9140625 285.5390625 C-154.26006873 286.50602774 -195.80944848 269.87366149 -230.24536133 237.49511719 C-235.50543629 232.43743196 -240.22013317 227.12300955 -244.5625 221.25 C-245.29726562 220.25742187 -246.03203125 219.26484375 -246.7890625 218.2421875 C-257.06006799 203.87689804 -264.49048481 188.81568426 -270.5625 172.25 C-270.97371094 171.15558594 -271.38492188 170.06117188 -271.80859375 168.93359375 C-285.02071611 130.32540741 -280.44594348 85.46611746 -262.9765625 49.0390625 C-243.03223379 8.87497568 -208.91311241 -21.67117443 -166.5625 -36.75 C-107.85292143 -55.73730568 -45.39366821 -41.18579017 0 0 Z M-145.5625 -31.75 C-146.31257324 -31.57839355 -147.06264648 -31.40678711 -147.83544922 -31.22998047 C-174.09312878 -25.20035941 -197.58638685 -13.28140348 -217.33203125 5.17578125 C-219.37410319 7.07480087 -221.47701582 8.84837655 -223.625 10.625 C-246.35753653 30.52738138 -260.64177531 62.17612562 -266.5625 91.25 C-266.89894531 92.79107422 -266.89894531 92.79107422 -267.2421875 94.36328125 C-274.38189564 133.63167601 -263.56329137 175.54551191 -241.5625 208.25 C-238.40304754 212.72579778 -235.0304827 217.00862647 -231.5625 221.25 C-231.00949219 221.94480469 -230.45648438 222.63960938 -229.88671875 223.35546875 C-226.81867226 227.10162794 -223.42768656 230.26133405 -219.73046875 233.3828125 C-218.25965959 234.64956345 -216.82495385 235.95923085 -215.42578125 237.3046875 C-186.76570249 264.65097657 -146.21993263 276.39000083 -107.3671875 275.49609375 C-66.11523314 273.7920981 -28.239596 255.81264276 0.3203125 226.3046875 C2.09328809 224.33379836 3.77214382 222.31272967 5.4375 220.25 C6.20707031 219.31800781 6.97664063 218.38601563 7.76953125 217.42578125 C14.38393507 209.2496789 19.6069327 200.57593363 24.4375 191.25 C24.75847656 190.63930664 25.07945312 190.02861328 25.41015625 189.39941406 C41.16755839 159.05487709 46.36985029 121.52466419 38.4375 88.25 C38.03724609 86.32994141 38.03724609 86.32994141 37.62890625 84.37109375 C32.00060921 58.40204714 18.64841288 31.94345153 -1.02734375 13.77734375 C-2.5625 12.25 -2.5625 12.25 -4.44140625 9.83203125 C-8.18771365 5.27160917 -12.93740681 1.88019478 -17.5625 -1.75 C-18.51769531 -2.50925781 -19.47289062 -3.26851562 -20.45703125 -4.05078125 C-54.67865506 -30.57597561 -103.29275961 -42.10775374 -145.5625 -31.75 Z " fill="#51271C" transform="translate(369.5625,135.75)"/>
<path d="M0 0 C1.43367431 1.23362673 2.87040373 2.46372906 4.3125 3.6875 C5.199375 4.450625 6.08625 5.21375 7 6 C6.34 6.33 5.68 6.66 5 7 C2.56572492 5.87999064 0.23409498 4.70005166 -2.125 3.4375 C-15.96235574 -3.68563237 -29.72858587 -8.094618 -45 -11 C-46.63388672 -11.3403125 -46.63388672 -11.3403125 -48.30078125 -11.6875 C-65.18497789 -14.71530114 -84.20096484 -14.38104923 -101 -11 C-101.76908691 -10.84934082 -102.53817383 -10.69868164 -103.33056641 -10.54345703 C-143.95061654 -2.39125495 -180.79333072 20.50296092 -204.17504883 55.00854492 C-206.78408849 58.93003682 -209.33932691 62.87084963 -211.71875 66.9375 C-212.1415625 67.618125 -212.564375 68.29875 -213 69 C-213.33 69 -213.66 69 -214 69 C-214.22230614 61.92325467 -213.85702819 55.42366789 -212.453125 48.484375 C-211.85313286 45.19476293 -211.71639047 42.33241198 -212 39 C-212.99 38.01 -212.99 38.01 -214 37 C-216.53298236 36.98641908 -216.53298236 36.98641908 -219 38 C-221.40401704 41.2405025 -222.58247377 45.24395592 -224 49 C-224.27102539 49.71188477 -224.54205078 50.42376953 -224.82128906 51.15722656 C-232.44394821 71.38495334 -238.40336494 92.31289266 -238.375 114.0625 C-238.37483887 115.23119629 -238.37467773 116.39989258 -238.37451172 117.60400391 C-238.23691974 128.17541261 -237.37964462 139.7046292 -232.8671875 149.4453125 C-231.79275985 152.61051827 -231.93180405 155.28337912 -232.00585938 158.60009766 C-231.99627813 162.52441462 -231.38668051 166.32251254 -230.75 170.1875 C-230.61432617 171.01701172 -230.47865234 171.84652344 -230.33886719 172.70117188 C-227.59457034 188.74570649 -222.56199396 206.57777813 -213.84765625 220.50390625 C-213 222 -213 222 -213 224 C-215 224 -215 224 -216.375 222.70703125 C-218.27563727 220.49114405 -220.14794065 218.25676861 -222 216 C-222.75796875 215.08992187 -223.5159375 214.17984375 -224.296875 213.2421875 C-246.42662986 185.68570932 -258.47945586 150.59553731 -258.3125 115.25 C-258.30831055 114.02571289 -258.30412109 112.80142578 -258.29980469 111.54003906 C-258.18172711 102.03102593 -257.20032123 93.22991892 -255 84 C-254.73316406 82.71996094 -254.46632813 81.43992187 -254.19140625 80.12109375 C-248.94019437 55.8919237 -237.10779048 33.71812069 -221 15 C-220.56268555 14.48969238 -220.12537109 13.97938477 -219.67480469 13.45361328 C-214.51060381 7.4814213 -209.14704927 1.95417782 -203 -3 C-202.05640625 -3.76957031 -201.1128125 -4.53914063 -200.140625 -5.33203125 C-179.96461355 -21.50050031 -157.14478108 -31.26376556 -132 -37 C-130.84113281 -37.26683594 -129.68226563 -37.53367187 -128.48828125 -37.80859375 C-83.16936797 -46.05356543 -33.8005985 -30.50770352 0 0 Z " fill="#B14D10" transform="translate(359,140)"/>
<path d="M0 0 C2.94363699 2.25881222 5.52410221 4.35118007 7.69140625 7.37109375 C8.15506592 8.01675293 8.61872559 8.66241211 9.09643555 9.32763672 C9.82213745 10.37201904 9.82213745 10.37201904 10.5625 11.4375 C11.07917236 12.17758301 11.59584473 12.91766602 12.12817383 13.68017578 C22.30492017 28.52889689 30.87106082 44.47991867 38 61 C38.30744141 61.71172363 38.61488281 62.42344727 38.93164062 63.15673828 C60.66694176 114.76032088 63.45281777 179.22905817 44 232 C43.02160156 231.45730469 42.04320312 230.91460937 41.03515625 230.35546875 C28.99083303 223.74525352 18.67413234 220.53135869 5 219 C5.265241 217.56145763 5.53766477 216.12424025 5.8125 214.6875 C5.96332031 213.88699219 6.11414063 213.08648437 6.26953125 212.26171875 C6.89995314 209.44673328 7.64479019 206.71716034 8.4375 203.9453125 C22.66734591 152.15807578 12.02707555 97.60834514 -13.59423828 51.45654297 C-16.46203526 46.44512005 -19.60546423 41.67238642 -23 37 C-23.52722656 36.25234375 -24.05445313 35.5046875 -24.59765625 34.734375 C-25.71922462 33.1473089 -26.85696364 31.57167499 -28 30 C-26.36221955 25.80374091 -23.26676818 23.01323215 -20.1171875 19.921875 C-19.54292023 19.35043762 -18.96865295 18.77900024 -18.37698364 18.19024658 C-16.5476419 16.37207055 -14.71145807 14.56098508 -12.875 12.75 C-11.63105226 11.51608671 -10.3875573 10.28171678 -9.14453125 9.046875 C-6.10157633 6.02593257 -3.05246746 3.01132908 0 0 Z " fill="#68BBF9" transform="translate(446,101)"/>
<path d="M0 0 C2.36359468 0.45835482 4.73224497 0.86082187 7.10693359 1.25732422 C42.72581215 7.47626695 75.48517743 22.35917582 105.31396484 42.44873047 C106.30396484 41.45873047 107.29396484 40.46873047 108.31396484 39.44873047 C113.71886003 40.96885724 117.29889113 44.72258265 121.31396484 48.44873047 C117.41419763 53.11747584 113.3618184 57.54000856 109.04052734 61.81982422 C108.47191986 62.38701675 107.90331238 62.95420929 107.31747437 63.53858948 C105.52700249 65.3235296 103.73306 67.10493303 101.93896484 68.88623047 C100.71347161 70.10669986 99.48820912 71.327401 98.26318359 72.54833984 C95.2827671 75.51781803 92.2992359 78.48413303 89.31396484 81.44873047 C85.21060419 79.88892817 82.05997392 77.97631345 78.50146484 75.38623047 C71.09462541 70.13231807 63.33520567 65.69158721 55.31396484 61.44873047 C54.22599609 60.86478516 53.13802734 60.28083984 52.01708984 59.67919922 C31.99792749 49.64612137 9.94367352 43.37927338 -12.22729492 40.74462891 C-14.28840997 40.49658289 -16.34220374 40.18869979 -18.39306641 39.86669922 C-24.34523976 39.13026187 -30.36919574 39.30051553 -36.35717773 39.31835938 C-38.48314636 39.32369187 -40.6089013 39.31840411 -42.73486328 39.31201172 C-44.1209316 39.31195107 -45.50700068 39.31323584 -46.89306641 39.31591797 C-47.90170746 39.31777603 -47.90170746 39.31777603 -48.9307251 39.31967163 C-53.86795523 39.36247823 -58.66817496 39.80329095 -63.54370117 40.56396484 C-65.68603516 40.44873047 -65.68603516 40.44873047 -67.45458984 38.91967773 C-68.81103516 37.07373047 -68.81103516 37.07373047 -70.19775391 34.81982422 C-78.06720709 22.28240144 -93.66345975 12.88914701 -106.68603516 6.44873047 C-72.2454609 -2.32965483 -35.2788535 -6.88964787 0 0 Z " fill="#9BD1FA" transform="translate(293.68603515625,12.55126953125)"/>
<path d="M0 0 C4.80126156 1.71473627 8.42530139 4.33865978 12.5 7.34375 C14.94125806 8.96108347 17.2500449 10.01787318 20 11 C20 11.33 20 11.66 20 12 C19.01773438 12.03867187 19.01773438 12.03867187 18.015625 12.078125 C1.13846221 13.12698822 -13.41904858 20.77457742 -25 33 C-34.88798965 44.71266261 -40.09688463 57.15516145 -40.625 72.4375 C-40.68300781 73.82098633 -40.68300781 73.82098633 -40.7421875 75.23242188 C-40.83568676 77.48809143 -40.9214391 79.74376916 -41 82 C-51.66376268 87.72329188 -62.54508786 92.12468395 -74 96 C-74.80211914 96.27231445 -75.60423828 96.54462891 -76.43066406 96.82519531 C-114.27053037 109.44866019 -154.7661998 110.65496124 -194 105 C-194 104.01 -194 103.02 -194 102 C-195.57101224 100.42898776 -197.14861552 98.86425987 -198.75 97.32421875 C-208.11067623 87.65477021 -228 65.89849501 -228 52 C-226.845 52.391875 -225.69 52.78375 -224.5 53.1875 C-222.66675336 53.79192968 -220.83340618 54.39605443 -219 55 C-217.85917969 55.38671875 -216.71835938 55.7734375 -215.54296875 56.171875 C-208.09116421 58.64518236 -200.637499 60.64068145 -192.9375 62.1875 C-192.17203857 62.34210693 -191.40657715 62.49671387 -190.61791992 62.65600586 C-177.73235784 65.13043162 -165.1809965 66.35414457 -152.0625 66.25 C-151.36111908 66.24689819 -150.65973816 66.24379639 -149.93710327 66.24060059 C-139.81561986 66.18819273 -129.98977544 65.80966613 -120 64 C-118.43383533 63.76272284 -116.8674098 63.52716357 -115.30078125 63.29296875 C-70.29017038 56.12286952 -31.38114713 32.21182456 0 0 Z " fill="#68BBF9" transform="translate(407,394)"/>
<path d="M0 0 C8.51973213 12.7795982 6.04126764 36.88589088 3.81640625 51.30859375 C0.2399633 67.47959178 -7.59704129 80.0833945 -19 92 C-19.54011719 92.60328125 -20.08023438 93.2065625 -20.63671875 93.828125 C-28.35771755 102.15202295 -38.36588446 108.26945613 -48.234375 113.71875 C-49.39417625 114.36086174 -49.39417625 114.36086174 -50.57740784 115.01594543 C-60.3578811 120.36865816 -70.4295833 125.11943082 -80.49633789 129.90356445 C-92.16502336 135.46055967 -103.45714602 141.05916942 -113.5625 149.25 C-114.36816406 149.89453125 -115.17382812 150.5390625 -116.00390625 151.203125 C-118.19832483 153.02960221 -118.19832483 153.02960221 -120 156 C-122.98237763 154.67877464 -124.79741236 153.31594877 -126.9375 150.875 C-133.75295424 143.90071103 -142.72616741 139.54167969 -151.38671875 135.26171875 C-152.41957504 134.74795685 -152.41957504 134.74795685 -153.47329712 134.22381592 C-157.73183384 132.10968803 -162.00217121 130.02031685 -166.27708435 127.93954468 C-199.00795578 112.00290758 -199.00795578 112.00290758 -212 102 C-212.63228516 101.51756836 -213.26457031 101.03513672 -213.91601562 100.53808594 C-226.87569567 90.48407471 -235.83120393 79.35025998 -242 64 C-242.31582031 63.27167969 -242.63164062 62.54335938 -242.95703125 61.79296875 C-246.88221234 52.29905784 -247.33506621 42.2732498 -247.25 32.125 C-247.24468262 30.98546875 -247.23936523 29.8459375 -247.23388672 28.671875 C-247.0003266 8.0003266 -247.0003266 8.0003266 -243 4 C-241.2976618 5.7023382 -241.4926308 7.97988298 -241.15161133 10.26806641 C-236.48895486 40.95633528 -219.70594536 67.28878896 -194.75 85.6875 C-184.23785182 93.19191538 -173.16331069 99.75946785 -161.828125 105.93359375 C-161.1958902 106.2787352 -160.5636554 106.62387665 -159.91226196 106.97947693 C-156.76688017 108.69441453 -153.61588718 110.39710312 -150.45263672 112.07885742 C-128.25566837 123.99917933 -128.25566837 123.99917933 -124 134 C-121.2140814 134.67012422 -121.2140814 134.67012422 -118 134 C-116.79514012 132.47401248 -116.79514012 132.47401248 -115.8125 130.5 C-110.52656569 120.83820448 -98.39897581 115.77779928 -89.0625 110.75 C-86.6729809 109.44387958 -84.28746845 108.13053085 -81.90234375 106.81640625 C-81.31352417 106.49255447 -80.72470459 106.1687027 -80.11804199 105.83503723 C-45.41924228 86.71166456 -15.67442689 63.40119076 -4 24 C-1.92186312 16.12514229 -0.71099454 8.10533776 0 0 Z " fill="#FCC85C" transform="translate(377,223)"/>
<path d="M0 0 C9.4434871 4.83978714 15.7454061 12.3368214 19.34765625 22.30078125 C20.06783417 24.66899423 20.72912153 27.03234314 21.3125 29.4375 C23.9525 29.4375 26.5925 29.4375 29.3125 29.4375 C29.45945312 28.83164063 29.60640625 28.22578125 29.7578125 27.6015625 C33.09919254 15.11939569 39.50075776 6.15402362 50.625 -0.5625 C56.453856 -2.14320671 62.75401093 -2.99225007 68.5 -0.68359375 C73.3734834 2.49887494 76.42753052 7.02828872 77.89453125 12.6796875 C79.42381729 22.77011689 79.38183956 33.37563589 74.3125 42.4375 C68.60926726 49.4832095 62.0853479 53.6356252 54 57.5 C51.96363677 58.51712751 49.92975182 59.53923259 47.8984375 60.56640625 C46.45162598 61.29754639 46.45162598 61.29754639 44.97558594 62.04345703 C38.09535066 65.64504701 31.69137097 69.7989594 26.3125 75.4375 C23.31024792 74.06921697 21.05698205 72.45775456 18.5625 70.3125 C14.46621834 67.05838151 10.24655141 64.75906567 5.5625 62.5 C0.28087822 59.94945998 -4.86607304 57.306554 -9.875 54.25 C-10.87917969 53.63769531 -11.88335937 53.02539062 -12.91796875 52.39453125 C-20.4257332 47.08932675 -25.96699798 40.55117373 -27.6875 31.4375 C-28.44180197 21.45828882 -28.43823146 12.18862157 -22.8125 3.5625 C-16.36641702 -2.88358298 -8.38764019 -3.37250004 0 0 Z " fill="#FDC95C" transform="translate(230.6875,163.5625)"/>
<path d="M0 0 C2.4375 0.8125 2.4375 0.8125 4.4375 2.8125 C5.19974913 5.1819721 5.89344974 7.54206869 6.5625 9.9375 C12.83214106 30.96796841 23.11559922 44.28233348 42.5625 54.8125 C50.3222136 58.92476754 58.34669299 62.41032097 66.4375 65.8125 C65.37874926 69.21562738 64.42847846 71.82603231 62.4375 74.8125 C38.62709702 67.58434195 18.65678665 55.57460191 4.4375 34.8125 C4.1075 34.1525 3.7775 33.4925 3.4375 32.8125 C6.37111006 52.20935457 16.16339718 67.78757274 31.9296875 79.4609375 C40.06347983 85.26228367 48.60712063 90.37348546 57.19775391 95.46118164 C67.2587013 101.44017531 76.87672218 107.76898972 85.4375 115.8125 C85.63859375 115.25433594 85.8396875 114.69617188 86.046875 114.12109375 C87.98312909 110.90669441 90.69007079 109.02850429 93.6875 106.875 C94.3364624 106.40263916 94.9854248 105.93027832 95.65405273 105.44360352 C102.29846417 100.72024512 109.31740036 96.67617883 116.36328125 92.58911133 C139.14661618 79.30476578 157.31690759 64.09130056 164.9921875 37.93359375 C165.57447697 35.52127962 165.57447697 35.52127962 165.4375 31.8125 C164.81875 32.84697266 164.81875 32.84697266 164.1875 33.90234375 C151.13436052 55.14283187 131.79704072 65.08447283 109.47680664 74.54272461 C100.81973477 78.28989484 93.49179506 81.9988151 89.4375 90.8125 C86.1375 90.1525 82.8375 89.4925 79.4375 88.8125 C81.4267776 80.85538962 85.78430247 75.61826982 92.5625 71.1875 C100.47985357 66.47959714 108.69380368 62.55340476 117.13916016 58.8996582 C125.03903266 55.47093381 132.42576005 51.88534142 139.4375 46.8125 C140.06527344 46.379375 140.69304687 45.94625 141.33984375 45.5 C153.820192 35.99116323 159.46911917 20.04220878 163.4453125 5.52734375 C164.43227688 2.82679162 165.12345687 1.4879844 167.4375 -0.1875 C170.77942692 0.05703124 172.04293557 0.41793557 174.4375 2.8125 C179.69218447 24.31778274 176.58661903 46.01652701 165.5625 65.125 C154.90625997 81.06342797 139.05259928 92.24124905 122.7421875 101.76171875 C122.15260254 102.10667892 121.56301758 102.4516391 120.95556641 102.80705261 C118.03017297 104.51425117 115.09633935 106.19882543 112.14160156 107.85522461 C102.41806274 113.42531708 93.30974661 119.41056869 88.4375 129.8125 C87.7775 130.4725 87.1175 131.1325 86.4375 131.8125 C84 131.75 84 131.75 81.4375 130.8125 C80.0625 128.75 80.0625 128.75 78.4375 125.8125 C70.39725578 114.93725638 58.58238734 108.55401324 47.0625 101.9375 C23.99947405 88.48907641 4.92938004 73.51523133 -4.5625 47.8125 C-4.91699219 46.87019531 -5.27148438 45.92789063 -5.63671875 44.95703125 C-9.30040797 32.5128548 -9.17217904 15.18578483 -5.5625 2.8125 C-3.24311353 -0.23730099 -3.24311353 -0.23730099 0 0 Z " fill="#50261A" transform="translate(171.5625,197.1875)"/>
<path d="M0 0 C2.94363699 2.25881222 5.52410221 4.35118007 7.69140625 7.37109375 C8.15506592 8.01675293 8.61872559 8.66241211 9.09643555 9.32763672 C9.82213745 10.37201904 9.82213745 10.37201904 10.5625 11.4375 C11.07917236 12.17758301 11.59584473 12.91766602 12.12817383 13.68017578 C30.34944587 40.26653037 53.27385167 80.46169239 52 114 C51.113125 113.236875 50.22625 112.47375 49.3125 111.6875 C48.66539062 111.13707031 48.01828125 110.58664063 47.3515625 110.01953125 C45.64490565 108.55384755 43.95417932 107.06954923 42.2734375 105.57421875 C36.179044 100.20655218 29.86799241 95.34292564 23.125 90.8125 C22.3613916 90.29582764 21.5977832 89.77915527 20.81103516 89.24682617 C17.26888541 86.91275565 13.85464034 84.83282088 9.90234375 83.2734375 C-0.49332984 79.08596527 -3.68439424 73.18677906 -8.06665039 63.00268555 C-8.49582764 61.99246338 -8.92500488 60.98224121 -9.3671875 59.94140625 C-11.71959734 54.42556359 -14.54817778 49.47954881 -17.875 44.5 C-18.31553711 43.83750244 -18.75607422 43.17500488 -19.20996094 42.49243164 C-22.06016021 38.27194426 -25.02698877 34.13451024 -28 30 C-26.36221955 25.80374091 -23.26676818 23.01323215 -20.1171875 19.921875 C-19.54292023 19.35043762 -18.96865295 18.77900024 -18.37698364 18.19024658 C-16.5476419 16.37207055 -14.71145807 14.56098508 -12.875 12.75 C-11.63105226 11.51608671 -10.3875573 10.28171678 -9.14453125 9.046875 C-6.10157633 6.02593257 -3.05246746 3.01132908 0 0 Z " fill="#9BD1FA" transform="translate(446,101)"/>
<path d="M0 0 C6.0339321 4.50859451 11.06435064 9.57177271 15 16 C15 16.66 15 17.32 15 18 C15.66 18 16.32 18 17 18 C17.37125 16.91525391 17.37125 16.91525391 17.75 15.80859375 C22.07363592 6.0939243 31.12472533 0.27394032 40.37890625 -4.1328125 C48.06588257 -6.67604461 57.45805605 -5.86731748 64.75 -2.44921875 C72.34295401 2.44138184 76.5110058 9.47652689 79 18 C79.51856148 21.64723793 79.57458453 25.19581959 79.5 28.875 C79.48718994 29.83881592 79.47437988 30.80263184 79.46118164 31.7956543 C79.13161414 43.39506117 76.32517392 52.64323149 68 61 C60.50886237 67.84703981 51.33567992 72.12669647 42.32421875 76.61254883 C30.66428835 82.4357149 30.66428835 82.4357149 22.5625 92.3125 C21.85287109 93.60607422 21.85287109 93.60607422 21.12890625 94.92578125 C20.75636719 95.61027344 20.38382812 96.29476562 20 97 C19 98 19 98 16.140625 98.37890625 C13 98 13 98 11.234375 95.83984375 C10.74453125 94.88207031 10.2546875 93.92429687 9.75 92.9375 C3.57039122 82.52764401 -6.82571596 78.33643976 -17.33642578 73.08203125 C-30.1851918 66.58041782 -40.9280119 57.93331534 -46.0078125 44.06640625 C-49.09807072 33.10625343 -48.64304943 19.55525477 -43.484375 9.3828125 C-39.34804401 2.74291275 -34.85739833 -2.15554265 -27.1640625 -4.578125 C-17.38215299 -6.48506765 -8.55610776 -5.03781755 0 0 Z M-33.27734375 11.71484375 C-38.42842272 20.09222129 -38.38788617 31.89473909 -36.24609375 41.31640625 C-31.07441039 56.223023 -17.86077945 61.85372077 -4.47851562 68.4609375 C1.19256248 71.32872014 6.15806315 74.40722366 11.04272461 78.484375 C12.95306956 79.9636592 14.80716733 81.00022268 17 82 C17.391875 81.59910156 17.78375 81.19820313 18.1875 80.78515625 C25.92872104 73.42765953 35.56533554 68.69565317 45.0546875 63.96484375 C54.6127122 59.16562667 63.12499021 54.15907428 67.5625 43.9375 C70.4968694 34.36714841 70.68775593 22.0349484 66 13 C63.4938412 9.15722317 61.06692027 7.07709662 57 5 C48.19386045 3.65174967 42.00457622 5.4130699 34.9453125 10.47265625 C26.58150492 17.14792154 22.48319113 25.7622822 20 36 C17.36 36 14.72 36 12 36 C11.85304687 35.39414063 11.70609375 34.78828125 11.5546875 34.1640625 C8.44433387 22.54492536 2.5936151 13.06409461 -7.96875 6.83984375 C-17.11839479 2.80875025 -27.09768705 3.41860739 -33.27734375 11.71484375 Z " fill="#50261A" transform="translate(240,157)"/>
<path d="M0 0 C2.71095632 3.3200258 5.19857706 6.71878023 7.625 10.25 C19.81980159 26.94233392 38.91533767 36.19602982 58 43 C60.12364481 43.22609337 60.12364481 43.22609337 61.625 41.5 C62.07875 41.005 62.5325 40.51 63 40 C76.96331738 47.88995215 76.96331738 47.88995215 79 54 C78.34 55.32 77.68 56.64 77 58 C80.3 58.66 83.6 59.32 87 60 C87.226875 59.278125 87.45375 58.55625 87.6875 57.8125 C93.10093669 46.21227852 109.48647298 41.34709324 120.3671875 36.5 C137.86625201 28.59454027 151.78054729 18.92740598 161.6875 2.140625 C162.120625 1.43421875 162.55375 0.7278125 163 0 C163.33 0 163.66 0 164 0 C162.47622765 19.80904049 151.60980497 34.91239199 137 47.5 C127.67163086 54.85123258 117.29389973 60.83081185 107.125 66.9296875 C93.3342621 74.1585879 93.3342621 74.1585879 83 85 C79.8862167 83.62064862 77.89176682 82.02690143 75.5 79.625 C69.40287119 74.07942067 62.29793816 70.24188004 55.2265625 66.08984375 C32.93660751 52.99624238 10.27930702 38.42892632 1.67578125 12.65625 C0.61135129 8.47236343 0.18679324 4.30558417 0 0 Z " fill="#FCC85B" transform="translate(174,228)"/>
<path d="M0 0 C4.36386021 1.82673218 7.29414632 3.98533533 10 7.875 C11.62804269 12.96263341 11.58450404 16.42648931 9.71728516 21.453125 C6.24882412 28.11385375 0.37532469 33.15600011 -4.9140625 38.375 C-6.09255767 39.55110789 -7.2703111 40.72795945 -8.44735718 41.90551758 C-10.9040793 44.35912555 -13.36733152 46.80590858 -15.8359375 49.24755859 C-19.00504933 52.38250486 -22.16064672 55.53064529 -25.31196022 58.68347168 C-27.7373776 61.10834662 -30.16796039 63.52798571 -32.60035324 65.94586182 C-33.76659422 67.10572881 -34.93161935 68.26681963 -36.09541702 69.42913818 C-37.71570429 71.04510947 -39.34238956 72.65433604 -40.97119141 74.26171875 C-41.89622467 75.17912842 -42.82125793 76.09653809 -43.77432251 77.04174805 C-46 79 -46 79 -48 79 C-49.33984375 77.63671875 -49.33984375 77.63671875 -50.9375 75.6875 C-54.08326912 71.9842528 -57.38075917 68.49761908 -60.8125 65.0625 C-61.29259521 64.5780542 -61.77269043 64.0936084 -62.26733398 63.59448242 C-64.88471124 60.96667347 -64.88471124 60.96667347 -68 59 C-66.41770708 55.17501124 -63.99583949 52.73601266 -61.09472656 49.82006836 C-60.5968866 49.31711746 -60.09904663 48.81416656 -59.58612061 48.29597473 C-57.94275525 46.63873664 -56.29209222 44.98900563 -54.640625 43.33984375 C-53.49178412 42.18711422 -52.34316678 41.03416187 -51.19476318 39.8809967 C-48.78721254 37.46598849 -46.37582822 35.05488715 -43.96191406 32.64624023 C-40.87561169 29.56572697 -37.80081154 26.47401236 -34.72903824 23.37901974 C-32.35960084 20.9948177 -29.9832374 18.61761367 -27.60485077 16.242342 C-26.4686641 15.10564333 -25.33482676 13.96659117 -24.20343781 12.82511711 C-22.61701084 11.22629257 -21.02125218 9.63737938 -19.42285156 8.05053711 C-18.51843323 7.14548935 -17.61401489 6.24044159 -16.68218994 5.30796814 C-11.68850414 1.01100634 -6.63423629 -1.31444682 0 0 Z " fill="#FCDFA6" transform="translate(458,43)"/>
<path d="M0 0 C0.74185547 -0.00773437 1.48371094 -0.01546875 2.24804688 -0.0234375 C6.42803418 -0.00854885 9.61959028 0.34482525 13.4375 2.25 C13.4375 2.91 13.4375 3.57 13.4375 4.25 C11.97372604 5.16485873 10.46355511 6.0058052 8.9375 6.8125 C-4.02635958 14.38544767 -8.74645587 25.90420811 -12.5625 39.75 C-18.00260315 59.44722089 -18.00260315 59.44722089 -26.453125 65.0703125 C-31.97454075 68.15821538 -37.29860563 69.597511 -43.5625 70.25 C-44.37748562 68.6470947 -45.18939927 67.04262722 -46 65.4375 C-46.45246094 64.54417969 -46.90492188 63.65085937 -47.37109375 62.73046875 C-50.99229879 55.19123859 -50.61479105 45.72961285 -48.7265625 37.69140625 C-43.16472229 22.14438311 -32.2485791 10.47407266 -17.421875 3.44140625 C-11.352923 0.91267625 -6.51797851 -0.06831069 0 0 Z " fill="#E16315" transform="translate(425.5625,415.75)"/>
<path d="M0 0 C5.56231567 9.15090643 6.49987229 19.05185786 4.50390625 29.62890625 C3.80390066 31.83965836 2.96373883 33.89157545 2 36 C1.69449219 36.7734375 1.38898438 37.546875 1.07421875 38.34375 C-4.32158722 50.74429317 -15.09853274 60.86413868 -27.515625 66.05078125 C-33.74360986 68.22645146 -39.51003366 69.13904451 -46.125 69.125 C-47.34445312 69.12757813 -48.56390625 69.13015625 -49.8203125 69.1328125 C-53 69 -53 69 -56 68 C-56 67.34 -56 66.68 -56 66 C-55.21496094 65.6596875 -54.42992187 65.319375 -53.62109375 64.96875 C-43.20534128 60.16344579 -37.46810543 54.48815172 -33 44 C-31.39894805 39.27379258 -30.07907867 34.4676665 -28.73242188 29.6640625 C-25.35637062 18.04488381 -21.4108418 9.22961935 -10.8828125 2.68359375 C-7.18764848 0.68262757 -4.29761757 -0.5372022 0 0 Z " fill="#E06315" transform="translate(451,427)"/>
<path d="M0 0 C-2.74164118 10.50962452 -7.23586012 18.91671104 -16.76953125 24.671875 C-19.8035168 26.24534119 -22.85645857 27.6597304 -26 29 C-26.79148437 29.34289062 -27.58296875 29.68578125 -28.3984375 30.0390625 C-40.78005117 34.56067568 -56.15272184 32.90016554 -68.00390625 27.67578125 C-73.55635371 24.85889379 -77.45547945 22.13344356 -81 17 C-79.51953125 14.00390625 -79.51953125 14.00390625 -77 11 C-73.97296904 10.67334198 -71.66478027 10.66939774 -68.6875 10.9375 C-55.23998456 11.5241775 -44.38049306 6.46689078 -32.53515625 0.55078125 C-21.49514934 -4.29218311 -11.21518538 -4.08709576 0 0 Z " fill="#E16315" transform="translate(496,368)"/>
<path d="M0 0 C14.89699556 -1.13046341 27.58149544 3.02905004 38.95703125 12.65625 C43.25835599 16.64063502 45.651142 20.64460376 48 26 C44.44413152 27.18528949 42.65707785 26.6596908 39 26 C24.75353264 24.94790011 14.132655 29.26388675 1.49316406 35.18164062 C-5.59577261 38.45345755 -12.1366978 40.32763759 -20 40 C-18.40552154 35.59620234 -16.15699967 31.65928664 -13.8125 27.625 C-9.40774737 19.93611957 -5.65850123 12.06694453 -2 4 C-1.34197711 2.66237969 -0.67976997 1.3267008 0 0 Z " fill="#E06315" transform="translate(447,330)"/>
<path d="M0 0 C2.97 0 5.94 0 9 0 C7.68 1.32 6.36 2.64 5 4 C3.35 2.68 1.7 1.36 0 0 Z " fill="#6EB8F4" transform="translate(446,410)"/>
<path d="M0 0 C0.33 0 0.66 0 1 0 C0.67 2.64 0.34 5.28 0 8 C-0.99 8 -1.98 8 -3 8 C-3 4.41465407 -1.97637955 2.92504174 0 0 Z " fill="#D4A34D" transform="translate(337,228)"/>
</svg>
